<svg id="Layer_1" data-name="Layer 1" xmlns="http://www.w3.org/2000/svg" viewBox="0 0 120.29 206"><defs><style>.cls-1{fill:#d1d3d4;}.cls-2{fill:#231f20;}.cls-3,.cls-4{fill:#00a651;}.cls-4{stroke:#231f20;stroke-miterlimit:10;stroke-width:2px;}</style></defs><path class="cls-1" d="M60.14,204.5c-15.49,0-30.08-3-41.07-8.53C7.74,190.31,1.5,182.66,1.5,174.43s6.24-15.88,17.57-21.55c11-5.49,25.58-8.52,41.07-8.52s30.08,3,41.08,8.52c11.33,5.67,17.57,13.32,17.57,21.55s-6.24,15.88-17.57,21.54C90.22,201.47,75.64,204.5,60.14,204.5Z"/><path class="cls-2" d="M60.14,145.86c31.56,0,57.15,12.79,57.15,28.57S91.7,203,60.14,203,3,190.21,3,174.43s25.58-28.57,57.14-28.57m0-3C26.42,142.86,0,156.72,0,174.43S26.42,206,60.14,206s60.15-13.87,60.15-31.57-26.42-31.57-60.15-31.57Z"/><rect class="cls-1" x="3" y="37.79" width="114.29" height="136.64"/><ellipse class="cls-1" cx="60.14" cy="31.57" rx="57.14" ry="28.57"/><ellipse class="cls-3" cx="60.14" cy="36.07" rx="57.14" ry="24.88"/><path class="cls-2" d="M60.14,3c31.56,0,57.15,12.79,57.15,28.57S91.7,60.14,60.14,60.14,3,47.35,3,31.57,28.58,3,60.14,3m0-3C26.42,0,0,13.87,0,31.57S26.42,63.14,60.14,63.14s60.15-13.86,60.15-31.57S93.87,0,60.14,0Z"/><rect class="cls-2" x="0.14" y="31.57" width="2.86" height="142.86"/><rect class="cls-2" x="117.29" y="31.57" width="2.86" height="142.86"/><polygon class="cls-4" points="71.39 83.51 48.89 83.51 37.64 103 48.89 122.49 71.39 122.49 82.64 103 71.39 83.51"/></svg>